<svg width="420" height="122" viewBox="0 0 420 122" fill="none" xmlns="http://www.w3.org/2000/svg" role="img" aria-labelledby="title description">
  <title id="title">voicyy</title>
  <desc id="description">Wordmark Voicyy provvisorio su sfondo trasparente</desc>
  <g fill="#0A0A0A">
    <path d="M25 35.5H42.6L57.5 76.2L72.6 35.5H90L65.2 96H49.6L25 35.5Z"/>
    <path fill-rule="evenodd" clip-rule="evenodd" d="M122 98C102.2 98 87.5 84.4 87.5 65.6C87.5 46.8 102.2 33 122 33C141.8 33 156.5 46.8 156.5 65.6C156.5 84.4 141.8 98 122 98ZM122 82.6C132.6 82.6 139.4 75.5 139.4 65.6C139.4 55.5 132.6 48.4 122 48.4C111.4 48.4 104.6 55.5 104.6 65.6C104.6 75.5 111.4 82.6 122 82.6Z"/>
    <path d="M165.2 35.5H182.1V96H165.2V35.5ZM173.7 27.6C168.2 27.6 164 23.7 164 18.4C164 13 168.2 9 173.7 9C179.3 9 183.5 13 183.5 18.4C183.5 23.7 179.3 27.6 173.7 27.6Z"/>
    <path d="M224.1 98C204.4 98 190.2 84.6 190.2 65.7C190.2 46.6 204.4 33 224.1 33C236.7 33 247 38.4 252.8 47.8L240.1 56.3C236.7 51 231.5 48.3 224.9 48.3C214.4 48.3 207.3 55.4 207.3 65.7C207.3 75.8 214.4 82.8 224.9 82.8C231.8 82.8 237 80.1 240.7 74.7L253.3 83C247.3 92.5 237 98 224.1 98Z"/>
    <path d="M257.7 35.5H275.5L291.8 75.9L307.4 35.5H324.9L297.5 101.5C293.4 111.2 286.5 115.8 276.1 115.8C270.4 115.8 265.1 114.5 260.8 112.1L266.6 99.6C269 101 271.9 101.7 274.8 101.7C278.6 101.7 281.2 100 283.1 96.2L284.1 93.8L257.7 35.5Z"/>
    <path d="M318.9 35.5H336.7L353 75.9L368.6 35.5H386.1L358.7 101.5C354.6 111.2 347.7 115.8 337.3 115.8C331.6 115.8 326.3 114.5 322 112.1L327.8 99.6C330.2 101 333.1 101.7 336 101.7C339.8 101.7 342.4 100 344.3 96.2L345.3 93.8L318.9 35.5Z"/>
  </g>
  <circle cx="400" cy="23" r="10" fill="#B7F34A"/>
</svg>
